<?xml version="1.0" standalone="no"?>
<!DOCTYPE svg PUBLIC "-//W3C//DTD SVG 20010904//EN"
 "http://www.w3.org/TR/2001/REC-SVG-20010904/DTD/svg10.dtd">
<svg version="1.0" xmlns="http://www.w3.org/2000/svg"
 width="512.000000pt" height="512.000000pt" viewBox="0 0 512.000000 512.000000"
 preserveAspectRatio="xMidYMid meet">

<g transform="translate(0.000000,512.000000) scale(0.100000,-0.100000)"
fill="#000000" stroke="none">
<path d="M2472 5110 c-33 -14 -42 -49 -32 -122 18 -131 40 -403 56 -698 21
-387 15 -1115 -15 -1985 -12 -335 -24 -688 -27 -782 -5 -136 -9 -171 -19 -165
-7 4 -97 84 -200 177 -232 210 -251 225 -289 225 -42 0 -94 -34 -102 -66 -13
-52 34 -336 96 -574 84 -324 204 -626 382 -959 58 -107 78 -136 104 -148 40
-20 93 -11 121 20 27 29 273 501 362 692 180 387 371 915 371 1023 0 63 -68
122 -124 108 -59 -15 -276 -209 -404 -361 l-75 -89 7 194 c4 107 16 366 26
575 35 680 42 979 37 1415 -5 448 -17 633 -62 955 -25 177 -76 448 -96 512
-17 55 -62 75 -117 53z m463 -3781 c-79 -212 -191 -468 -327 -741 l-130 -263
-55 115 c-87 182 -191 452 -238 615 -42 146 -80 313 -73 320 2 2 76 -64 165
-146 89 -82 169 -149 178 -149 9 0 28 -9 42 -20 18 -14 41 -20 73 -20 58 0 94
31 103 87 5 31 30 61 154 185 81 81 149 146 150 144 2 -2 -17 -59 -42 -127z"/>
</g>
</svg>
