<?xml version="1.0" standalone="no"?>
<!DOCTYPE svg PUBLIC "-//W3C//DTD SVG 20010904//EN"
 "http://www.w3.org/TR/2001/REC-SVG-20010904/DTD/svg10.dtd">
<svg version="1.0" xmlns="http://www.w3.org/2000/svg"
 width="512.000000pt" height="512.000000pt" viewBox="0 0 512.000000 512.000000"
 preserveAspectRatio="xMidYMid meet">

<g transform="translate(0.000000,512.000000) scale(0.100000,-0.100000)"
fill="#000000" stroke="none">
<path d="M1545 3268 c-478 -73 -923 -224 -1384 -470 -107 -58 -136 -78 -148
-104 -20 -40 -11 -93 20 -121 29 -27 501 -273 692 -362 387 -180 915 -371
1023 -371 63 0 122 68 108 124 -15 59 -209 276 -361 404 l-89 75 194 -7 c107
-4 366 -16 575 -26 680 -35 979 -42 1415 -37 450 5 633 17 960 63 226 32 505
88 536 109 29 19 39 55 27 92 -14 42 -47 54 -123 43 -133 -18 -404 -40 -700
-56 -387 -21 -1115 -15 -1985 15 -335 12 -688 24 -782 27 -136 5 -171 9 -165
19 4 7 84 97 177 200 208 229 225 251 225 287 0 36 -24 84 -49 98 -23 12 -82
11 -166 -2z m-201 -300 c-170 -181 -264 -288 -264 -303 0 -9 -9 -28 -20 -42
-14 -18 -20 -41 -20 -73 0 -58 31 -94 88 -104 31 -5 60 -28 187 -156 82 -82
147 -150 143 -150 -4 0 -62 21 -130 46 -211 78 -467 190 -740 326 l-263 130
115 55 c261 125 559 232 804 288 145 34 148 33 100 -17z"/>
</g>
</svg>
