<?xml version="1.0" standalone="no"?>
<!DOCTYPE svg PUBLIC "-//W3C//DTD SVG 20010904//EN"
 "http://www.w3.org/TR/2001/REC-SVG-20010904/DTD/svg10.dtd">
<svg version="1.0" xmlns="http://www.w3.org/2000/svg"
 width="512.000000pt" height="512.000000pt" viewBox="0 0 512.000000 512.000000"
 preserveAspectRatio="xMidYMid meet">

<g transform="translate(0.000000,512.000000) scale(0.100000,-0.100000)"
fill="#000000" stroke="none">
<path d="M3302 3252 c-37 -34 -49 -74 -33 -108 33 -73 217 -276 356 -392 l89
-75 -194 7 c-107 4 -366 16 -575 26 -680 35 -979 42 -1415 37 -450 -5 -633
-17 -960 -63 -226 -32 -505 -88 -536 -109 -29 -19 -39 -55 -27 -92 14 -42 47
-54 123 -43 133 18 404 40 700 56 387 21 1115 15 1985 -15 336 -12 688 -24
782 -27 136 -5 171 -9 165 -19 -4 -7 -83 -97 -177 -200 -210 -232 -225 -251
-225 -289 0 -42 34 -94 66 -102 52 -13 336 34 574 96 324 84 626 204 959 382
107 58 136 78 148 104 20 40 11 93 -20 121 -29 27 -501 273 -692 362 -304 141
-616 261 -870 336 -149 43 -183 45 -223 7z m490 -318 c211 -78 467 -190 740
-326 l263 -130 -115 -55 c-182 -87 -452 -191 -615 -238 -146 -42 -313 -80
-320 -73 -2 2 64 76 146 165 82 89 149 169 149 178 0 9 9 28 20 42 14 18 20
41 20 73 0 58 -31 94 -88 104 -31 5 -60 28 -187 156 -82 82 -147 150 -143 150
4 0 62 -21 130 -46z"/>
</g>
</svg>
